<svg xmlns="http://www.w3.org/2000/svg" width="193" height="145" viewBox="0 0 193 145">
  <metadata><?xpacket begin="﻿" id="W5M0MpCehiHzreSzNTczkc9d"?>
<x:xmpmeta xmlns:x="adobe:ns:meta/" x:xmptk="Adobe XMP Core 5.6-c140 79.160451, 2017/05/06-01:08:21        ">
   <rdf:RDF xmlns:rdf="http://www.w3.org/1999/02/22-rdf-syntax-ns#">
      <rdf:Description rdf:about=""/>
   </rdf:RDF>
</x:xmpmeta>
                                                                                                    
                                                                                                    
                                                                                                    
                                                                                                    
                                                                                                    
                                                                                                    
                                                                                                    
                                                                                                    
                                                                                                    
                                                                                                    
                                                                                                    
                                                                                                    
                                                                                                    
                                                                                                    
                                                                                                    
                                                                                                    
                                                                                                    
                                                                                                    
                                                                                                    
                                                                                                    
                           
<?xpacket end="w"?></metadata>
<defs>
    <style>
      .cls-1 {
        fill: #c10b32;
        fill-rule: evenodd;
      }
    </style>
  </defs>
  <path class="cls-1" d="M1500.81,1684.26l-9.99-18.12a18,18,0,0,0-15.78-9.36h-20.98v-2a17.878,17.878,0,0,0-17.98-17.92h-41.56a38.926,38.926,0,0,0-77.52,4.98,39.13,39.13,0,0,0,20.38,34.06v39.83a17.926,17.926,0,0,0,17.58,17.93,20.266,20.266,0,0,0,38.76,0h63.73a20.2,20.2,0,0,0,19.38,14.34,19.893,19.893,0,0,0,19.38-14.94,17.728,17.728,0,0,0,13.79-17.33V1698.4A16.467,16.467,0,0,0,1500.81,1684.26Zm-46.75-1.79v-13.74h20.98a5.761,5.761,0,0,1,5.19,3.18l5.79,10.76h-31.96v-0.2Zm22.38,53.58a8.165,8.165,0,1,1,0-16.33,8.087,8.087,0,0,1,8.19,8.16A8.222,8.222,0,0,1,1476.44,1736.05Zm21.37-37.65v17.33a6.235,6.235,0,0,1-2.59,4.98,19.957,19.957,0,0,0-37.57,1h-3.19v-27.29h39.56A3.963,3.963,0,0,1,1497.81,1698.4Zm-123.67,37.65a8.165,8.165,0,1,1,8.19-8.17A8.347,8.347,0,0,1,1374.14,1736.05Zm-18.38-121.1a26.89,26.89,0,1,1-26.97,26.89A27.076,27.076,0,0,1,1355.76,1614.95Zm-6.59,65.13a36.632,36.632,0,0,0,6.59.6,39.145,39.145,0,0,0,38.36-31.87h41.96a5.878,5.878,0,0,1,5.99,5.97v67.13h-48.95a20.636,20.636,0,0,0-18.98-13.75,20.237,20.237,0,0,0-18.98,13.75,6.1,6.1,0,0,1-5.79-5.98v-35.85h-0.2Zm-11.19-36.05,9.39,9.56h0a5.779,5.779,0,0,0,4.19,1.79,6.5,6.5,0,0,0,4.2-1.59l17.78-16.73a5.765,5.765,0,0,0,.2-8.37,5.466,5.466,0,0,0-4.19-1.79,6.113,6.113,0,0,0-4.2,1.59l-13.59,12.75-5.19-5.58a5.785,5.785,0,0,0-4.2-1.79,5.466,5.466,0,0,0-4.19,1.79A5.939,5.939,0,0,0,1337.98,1644.03Z" transform="translate(-1317 -1603)"/>
</svg>
